<svg width="34" height="34" viewBox="0 0 34 34" fill="none" xmlns="http://www.w3.org/2000/svg">
<g clip-path="url(#clip0_536_522)">
<path d="M0 24C0 29.5228 4.47715 34 10 34H24C29.5228 34 34 29.5228 34 24V10C34 4.47715 29.5228 0 24 0H10C4.47715 0 0 4.47715 0 10V24Z" fill="#2B2F3C"/>
<path d="M25.7158 24.3047H8.28418C7.23144 24.3047 6.375 23.449 6.375 22.3974V11.6172C6.375 10.5655 7.23144 9.70992 8.28418 9.70992H25.7158C26.7686 9.70992 27.625 10.5655 27.625 11.6172V22.3974C27.625 23.449 26.7686 24.3047 25.7158 24.3047ZM13.0156 18.4999C13.0156 17.6769 12.3454 17.0073 11.5215 17.0073H10.5254C9.70149 17.0073 9.03125 17.6769 9.03125 18.4999V19.495C9.03125 20.3181 9.70149 20.9877 10.5254 20.9877H11.5215C12.3454 20.9877 13.0156 20.3181 13.0156 19.495V18.4999ZM21.5529 15.1121C21.409 15.1121 21.2641 15.1586 21.1422 15.2544C20.8543 15.4813 20.8048 15.8985 21.0319 16.1862C21.2181 16.422 21.3164 16.706 21.3164 17.0073C21.3164 17.3086 21.2181 17.5926 21.0319 17.8285C20.8048 18.1162 20.8543 18.5333 21.1423 18.7602C21.4303 18.9869 21.8479 18.9376 22.075 18.6499C22.4432 18.1815 22.6438 17.6031 22.6445 17.0073C22.6438 16.4115 22.4432 15.8331 22.0749 15.3647C22.0127 15.2858 21.9334 15.2221 21.843 15.1783C21.7526 15.1346 21.6534 15.1119 21.5529 15.1121ZM23.6961 13.6855C23.6339 13.616 23.5577 13.5605 23.4725 13.5225C23.3873 13.4845 23.295 13.465 23.2017 13.4651C23.0381 13.4649 22.8801 13.5254 22.7584 13.6348C22.4854 13.8795 22.4627 14.299 22.7077 14.5717C23.3089 15.2404 23.6413 16.108 23.6406 17.0073C23.6413 17.9066 23.3089 18.7742 22.7077 19.443C22.4627 19.7157 22.4854 20.1351 22.7584 20.3797C23.0313 20.6245 23.4512 20.6018 23.6961 20.3291C24.5162 19.4171 24.9695 18.2338 24.9688 17.0073C24.9688 15.7788 24.5168 14.5991 23.6961 13.6855Z" fill="#96A0AF"/>
</g>
<defs>
<clipPath id="clip0_536_522">
<rect width="34" height="34" fill="white" transform="matrix(1 0 0 -1 0 34)"/>
</clipPath>
</defs>
</svg>
