<svg width="34" height="34" viewBox="0 0 34 34" fill="none" xmlns="http://www.w3.org/2000/svg">
<g clip-path="url(#clip0_536_542)">
<path d="M0 0H34V34H0V0Z" fill="#2B2F3C"/>
<path d="M10.6914 9.16406C9.36328 9.16406 8.73242 9.66297 8.73242 10.8271V15.4838L9.69531 14.5192L10.6914 13.4881V11.9913C10.6914 11.3261 11.1895 11.1598 11.6875 11.1598H19.3242L19.9882 10.1619L20.6855 9.16406L16.1035 9.19733C13.5801 9.19733 11.8535 9.16406 10.6914 9.16406ZM21.6484 10.8937C21.0176 11.8583 19.5567 13.9205 18.4278 15.5171L16.336 18.4441V24.7972H18.295V21.4377L18.3281 18.4773L20.8184 21.6372L23.3087 24.7972H25.3008C24.4708 23.633 22.3126 20.8057 21.4825 19.6415L19.6562 17.1469L22.3126 13.1555C23.7071 11.1265 24.9688 9.26387 24.9688 9.16406H22.8105C21.6484 10.8937 22.6445 9.39688 21.6484 10.8937ZM10.6914 15.8165L8.69922 17.8122V24.7972H10.6914V17.8122H14.3438V15.8165H10.6914Z" fill="#96A0AF"/>
</g>
<defs>
<clipPath id="clip0_536_542">
<rect width="34" height="34" rx="10" fill="white"/>
</clipPath>
</defs>
</svg>
