<svg width="22" height="18" viewBox="0 0 22 18" fill="none" xmlns="http://www.w3.org/2000/svg">
<path d="M1 7.85714V13.3431C1 14.6232 1 15.2629 1.24221 15.7519C1.45526 16.182 1.79497 16.532 2.21311 16.7511C2.688 17 3.30999 17 4.55212 17H17.4479C18.69 17 19.3111 17 19.786 16.7511C20.2041 16.532 20.545 16.182 20.758 15.7519C21 15.2634 21 14.6246 21 13.3469V7.85714M1 7.85714V5.57143M1 7.85714H21M1 5.57143V4.65737C1 3.37725 1 2.73671 1.24221 2.24777C1.45526 1.81768 1.79497 1.46827 2.21311 1.24913C2.68847 1 3.31121 1 4.55577 1H17.4447C18.6892 1 19.3106 1 19.786 1.24913C20.2041 1.46827 20.545 1.81768 20.758 2.24777C21 2.73623 21 3.37599 21 4.65361V5.57143M1 5.57143H21M5.44444 12.4286H9.88889M21 7.85714V5.57143" stroke="white" stroke-width="2" stroke-linecap="round" stroke-linejoin="round"/>
</svg>
