<svg width="34" height="34" viewBox="0 0 34 34" fill="none" xmlns="http://www.w3.org/2000/svg">
<g clip-path="url(#clip0_536_552)">
<path d="M0 0H34V34H0V0Z" fill="#2B2F3C"/>
<path d="M22.3123 10.6965C20.9638 10.6965 19.8604 11.7999 19.8604 13.1485C19.8604 14.497 20.9638 15.6004 22.3123 15.6004C23.6608 15.6004 24.7643 14.497 24.7643 13.1485C24.7643 11.7999 23.6608 10.6965 22.3123 10.6965Z" fill="#96A0AF"/>
<path fill-rule="evenodd" clip-rule="evenodd" d="M23.3741 18.3556C25.8046 17.8661 27.6249 15.727 27.6249 13.1484C27.6249 10.2061 25.2547 7.83594 22.3124 7.83594C19.7771 7.83594 17.6667 9.5957 17.1312 11.9649L14.0576 16.4177C16.7139 16.5811 18.8797 18.7062 19.0432 21.4033L23.3741 18.3556ZM22.3124 16.4177C20.5143 16.4177 19.0431 14.9465 19.0431 13.1484C19.0431 11.3504 20.5143 9.87919 22.3124 9.87919C24.1105 9.87919 25.5817 11.3504 25.5817 13.1484C25.5817 14.9465 24.1105 16.4177 22.3124 16.4177Z" fill="#96A0AF"/>
<path d="M13.7309 17.235C12.7501 17.235 11.9327 17.4802 11.1971 18.0114L13.6082 19.0331C14.916 19.5234 15.6515 20.9538 15.1611 22.2206C14.7934 23.2013 13.8944 23.8143 12.791 23.8143C12.464 23.8143 12.178 23.7735 11.851 23.6508L9.31738 22.6293C9.84863 24.6317 11.6059 26.2254 13.7309 26.2254C14.3217 26.2271 14.907 26.112 15.4531 25.8867C15.9993 25.6614 16.4955 25.3303 16.9133 24.9126C17.331 24.4948 17.6621 23.9986 17.8874 23.4524C18.1127 22.9063 18.2278 22.321 18.226 21.7302C18.2278 21.1394 18.1127 20.5541 17.8874 20.0079C17.6621 19.4618 17.331 18.9655 16.9133 18.5478C16.4955 18.13 15.9993 17.799 15.4531 17.5737C14.907 17.3484 14.3217 17.2333 13.7309 17.235Z" fill="#96A0AF"/>
<path d="M13.3221 19.7686L6.375 16.8263V20.545L12.1779 22.8744C13.1178 23.2013 14.0985 22.7926 14.4254 21.9345C14.7524 21.0763 14.262 20.1364 13.3221 19.7686Z" fill="#96A0AF"/>
</g>
<defs>
<clipPath id="clip0_536_552">
<rect width="34" height="34" rx="10" fill="white"/>
</clipPath>
</defs>
</svg>
