<svg width="34" height="34" viewBox="0 0 34 34" fill="none" xmlns="http://www.w3.org/2000/svg">
<g clip-path="url(#clip0_536_568)">
<path d="M0 0H34V34H0V0Z" fill="#2B2F3C"/>
<path d="M18.9499 14.0542V11.671H24.4036V8.03516H9.55114V11.671H15.0075V14.0542C10.5729 14.2572 7.23828 15.1356 7.23828 16.1879C7.23828 17.2402 10.5742 18.1186 15.0075 18.3229V25.9648H18.9525V18.3216C23.3779 18.1186 26.7045 17.2402 26.7045 16.1892C26.7045 15.1383 23.3779 14.2612 18.9525 14.0568M18.9525 17.6754V17.6728C18.8411 17.6807 18.2692 17.7152 16.9953 17.7152C15.9775 17.7152 15.261 17.686 15.0089 17.6728V17.6754C11.0917 17.5029 8.16717 16.8195 8.16717 16.0034C8.16717 15.1874 11.0917 14.5066 15.0089 14.3315V16.996C15.265 17.0133 15.9988 17.057 17.0125 17.057C18.228 17.057 18.8398 17.0066 18.9525 16.996V14.3329C22.8617 14.5066 25.7797 15.19 25.7797 16.0034C25.7797 16.8155 22.8604 17.4989 18.9525 17.6741" fill="#96A0AF"/>
</g>
<defs>
<clipPath id="clip0_536_568">
<rect width="34" height="34" rx="10" fill="white"/>
</clipPath>
</defs>
</svg>
