<svg width="15" height="14" viewBox="0 0 15 14" fill="none" xmlns="http://www.w3.org/2000/svg">
<path fill-rule="evenodd" clip-rule="evenodd" d="M14.3071 7C14.3071 10.866 11.1731 14 7.30713 14C3.44114 14 0.307129 10.866 0.307129 7C0.307129 3.13401 3.44114 0 7.30713 0C11.1731 0 14.3071 3.13401 14.3071 7ZM10.3476 10.0404C9.95704 10.431 9.32388 10.431 8.93336 10.0404L7.30713 8.41421L5.6809 10.0404C5.29038 10.431 4.65721 10.431 4.26669 10.0404C3.87616 9.64992 3.87616 9.01675 4.26669 8.62623L5.89292 7L4.26669 5.37377C3.87616 4.98325 3.87616 4.35008 4.26669 3.95956C4.65721 3.56904 5.29038 3.56903 5.6809 3.95956L7.30713 5.58579L8.93336 3.95956C9.32388 3.56903 9.95704 3.56904 10.3476 3.95956C10.7381 4.35008 10.7381 4.98325 10.3476 5.37377L8.72134 7L10.3476 8.62623C10.7381 9.01675 10.7381 9.64992 10.3476 10.0404Z" fill="white"/>
</svg>
