<svg width="13" height="14" viewBox="0 0 13 14" fill="none" xmlns="http://www.w3.org/2000/svg">
<path fill-rule="evenodd" clip-rule="evenodd" d="M11.5193 2.12976L7.03665 0.208616C6.38762 -0.0695385 5.65295 -0.0695387 5.00393 0.208616L0.521255 2.12976C0.205031 2.26529 0 2.57622 0 2.92026V7.43797C0 9.10448 0.804821 10.6684 2.16091 11.637L5.02051 13.6796C5.61858 14.1068 6.422 14.1068 7.02007 13.6796L9.87966 11.637C11.2358 10.6684 12.0406 9.10448 12.0406 7.43797V2.92026C12.0406 2.57622 11.8355 2.26529 11.5193 2.12976ZM9.38127 5.55817C9.72628 5.12691 9.65635 4.49762 9.22509 4.15261C8.79383 3.8076 8.16454 3.87752 7.81953 4.30878L5.07732 7.73655L4.14726 6.80649C3.75673 6.41597 3.12357 6.41597 2.73305 6.80649C2.34252 7.19702 2.34252 7.83018 2.73305 8.22071L4.05812 9.54578C4.69028 10.1779 5.73159 10.1203 6.29008 9.42216L9.38127 5.55817Z" fill="white"/>
</svg>
