<svg width="13" height="13" viewBox="0 0 13 13" fill="none" xmlns="http://www.w3.org/2000/svg">
<g clip-path="url(#clip0_536_506)">
<path fill-rule="evenodd" clip-rule="evenodd" d="M7.28549 4.47152e-06L11.3091 0C11.8091 -1.95832e-06 12.3091 0.623216 12.3091 1V5.81343C12.3091 7.63855 11.507 9.35131 10.1555 10.4121L7.30549 12.6491C6.70944 13.117 5.90872 13.117 5.31267 12.6491L2.46271 10.4121C1.11119 9.35131 0.309082 7.63855 0.309082 5.81343V1C0.309082 0.5 0.809082 0 1.30908 0H5.29222L7.28549 4.47152e-06ZM6.30908 1.00001C6.86136 1.00001 7.30908 1.44773 7.30908 2.00001V6.00001C7.30908 6.5523 6.86136 7.00001 6.30908 7.00001C5.75679 7.00001 5.30908 6.5523 5.30908 6.00001V2.00001C5.30908 1.44773 5.7568 1.00001 6.30908 1.00001ZM6.30908 10C6.86136 10 7.30908 9.5523 7.30908 9.00001C7.30908 8.44773 6.86136 8.00001 6.30908 8.00001C5.7568 8.00001 5.30908 8.44773 5.30908 9.00001C5.30908 9.5523 5.7568 10 6.30908 10Z" fill="white"/>
</g>
<defs>
<clipPath id="clip0_536_506">
<rect width="12" height="13" fill="white" transform="translate(0.309082)"/>
</clipPath>
</defs>
</svg>
