<svg width="30" height="26" viewBox="0 0 30 26" fill="current" xmlns="http://www.w3.org/2000/svg">
<g clip-path="url(#clip0_536_479)">
<path fill-rule="evenodd" clip-rule="evenodd" d="M8.00366 10.0939C8.00366 7.39088 10.2521 5.19971 13.0258 5.19971H24.3256C27.0991 5.19971 29.3477 7.39088 29.3477 10.0939V21.1057C29.3477 23.8086 27.0991 25.9999 24.3256 25.9999H13.0258C10.2521 25.9999 8.00366 23.8086 8.00366 21.1057V10.0939ZM16.1647 11.0727C16.1647 12.2214 15.209 13.1526 14.0302 13.1526C12.8514 13.1526 11.8958 12.2214 11.8958 11.0727C11.8958 9.92392 12.8514 8.99267 14.0302 8.99267C15.209 8.99267 16.1647 9.92392 16.1647 11.0727ZM23.3211 13.1526C24.5 13.1526 25.4555 12.2214 25.4555 11.0727C25.4555 9.92392 24.5 8.99267 23.3211 8.99267C22.1424 8.99267 21.1867 9.92392 21.1867 11.0727C21.1867 12.2214 22.1424 13.1526 23.3211 13.1526ZM25.4555 20.0045C25.4555 21.1532 24.5 22.0846 23.3211 22.0846C22.1424 22.0846 21.1867 21.1532 21.1867 20.0045C21.1867 18.8557 22.1424 17.9246 23.3211 17.9246C24.5 17.9246 25.4555 18.8557 25.4555 20.0045ZM14.0302 22.0846C15.209 22.0846 16.1647 21.1532 16.1647 20.0045C16.1647 18.8557 15.209 17.9246 14.0302 17.9246C12.8514 17.9246 11.8958 18.8557 11.8958 20.0045C11.8958 21.1532 12.8514 22.0846 14.0302 22.0846Z" fill="current"/>
<path fill-rule="evenodd" clip-rule="evenodd" d="M5.02212 0C2.24847 0 0 2.19119 0 4.89415V15.906C0 18.6088 2.24847 20.8001 5.02212 20.8001H5.33613V16.7736C4.49615 16.4939 3.89215 15.7182 3.89215 14.8048C3.89215 13.8915 4.49615 13.1157 5.33613 12.836V7.84177C4.49615 7.5621 3.89215 6.78627 3.89215 5.87298C3.89215 4.72423 4.84773 3.79297 6.02654 3.79297C6.36916 3.79297 6.69291 3.87163 6.97983 4.01144C7.91348 3.13628 9.17067 2.60008 10.5535 2.60008H20.7592C19.9154 1.05325 18.2448 0 16.3218 0H5.02212Z" fill="current"/>
</g>
<defs>
<clipPath id="clip0_536_479">
<rect width="30" height="26" fill="current"/>
</clipPath>
</defs>
</svg>
