<svg width="19" height="14" viewBox="0 0 19 14" fill="none" xmlns="http://www.w3.org/2000/svg">
<path d="M9.30918 9.99624C10.9654 9.99624 12.3081 8.65479 12.3081 7.00001C12.3081 5.34524 10.9654 4.00378 9.30918 4.00378C7.65295 4.00378 6.3103 5.34524 6.3103 7.00001C6.3103 8.65479 7.65295 9.99624 9.30918 9.99624Z" fill="white"/>
<path d="M17.7592 5.06667C16.5964 3.17454 13.9514 0 9.30908 0C4.6668 0 2.02177 3.17454 0.858951 5.06667C0.125792 6.25146 0.125792 7.74851 0.858951 8.93333C2.02177 10.8255 4.6668 14 9.30908 14C13.9514 14 16.5964 10.8255 17.7592 8.93333C18.4924 7.74851 18.4924 6.25146 17.7592 5.06667ZM9.30908 11.4944C6.82473 11.4944 4.81074 9.48214 4.81074 6.99998C4.81074 4.51783 6.82473 2.50561 9.30908 2.50561C11.7934 2.50561 13.8074 4.51783 13.8074 6.99998C13.8049 9.48112 11.7924 11.4919 9.30908 11.4944Z" fill="white"/>
</svg>
