<svg width="18" height="17" viewBox="0 0 18 17" fill="none" xmlns="http://www.w3.org/2000/svg">
<path d="M2.16553 3.57895C0.991922 3.57895 0.0405273 4.58042 0.0405273 5.81579C0.0405273 6.42543 0.27222 6.97811 0.647973 7.38158H16.4331C16.8088 6.97811 17.0405 6.42543 17.0405 5.81579C17.0405 4.58042 16.0891 3.57895 14.9155 3.57895H8.54053H2.16553Z" fill="white"/>
<path d="M8.54053 1.78947C8.54053 0.801175 9.30164 0 10.2405 0C11.1794 0 11.9405 0.801175 11.9405 1.78947C11.9405 2.77777 11.1794 3.57895 10.2405 3.57895H8.54053V1.78947Z" fill="white"/>
<path d="M8.54053 1.78947C8.54053 0.801175 7.77941 0 6.84053 0C5.90164 0 5.14053 0.801175 5.14053 1.78947C5.14053 2.77777 5.90164 3.57895 6.84053 3.57895H8.54053V1.78947Z" fill="white"/>
<path d="M7.90303 8.72368H0.871747L0.874379 8.83207C0.881734 9.13248 0.89052 9.49136 0.89052 9.96993C0.89052 12.1537 0.89052 13.2455 1.21403 14.1068C1.64538 15.2552 2.47275 16.1676 3.51412 16.6432C4.29514 17 5.28526 17 7.26551 17H7.90303V8.72368Z" fill="white"/>
<path d="M9.17803 17H9.81552C11.7958 17 12.7859 17 13.5669 16.6432C14.6083 16.1676 15.4357 15.2552 15.867 14.1068C16.1905 13.2455 16.1905 12.1537 16.1905 9.96993C16.1905 9.43245 16.1905 9.04594 16.1857 8.72368H9.17803V17Z" fill="white"/>
</svg>
