<svg width="17" height="19" viewBox="0 0 17 19" fill="none" xmlns="http://www.w3.org/2000/svg">
<path d="M0.584475 13.0178C0.755141 13.543 1.31929 13.8305 1.84455 13.6598C2.3698 13.4891 2.65725 12.925 2.48659 12.3997L0.584475 13.0178ZM4.53172 3.09507L4.2227 2.14401L4.2227 2.14401L4.53172 3.09507ZM1.53553 6.09125L0.584475 5.78224L0.584475 5.78224L1.53553 6.09125ZM8.54757 14.7738C8.93809 14.3832 8.93809 13.7501 8.54757 13.3596C8.15704 12.969 7.52388 12.969 7.13336 13.3596L8.54757 14.7738ZM6.69648 15.2107L7.40359 15.9178L7.40359 15.9178L6.69648 15.2107ZM6.75894 16.5876L6.11876 17.3558L6.11876 17.3558L6.75894 16.5876ZM7.43361 18.4516C7.85789 18.8051 8.48845 18.7478 8.84202 18.3235C9.19558 17.8992 9.13826 17.2687 8.71398 16.9151L7.43361 18.4516ZM9.71424 0.292893C9.32371 -0.0976311 8.69055 -0.097631 8.30002 0.292893C7.9095 0.683418 7.9095 1.31658 8.30002 1.70711L9.71424 0.292893ZM10.1511 2.14398L10.8582 1.43688L10.8582 1.43688L10.1511 2.14398ZM10.0887 3.52095L9.44847 2.75273L9.44847 2.75273L10.0887 3.52095ZM8.13361 3.84845C7.70933 4.20201 7.65201 4.83257 8.00557 5.25685C8.35914 5.68113 8.9897 5.73845 9.41398 5.38489L8.13361 3.84845ZM8.7738 15.9333L8.7738 16.9333L8.7738 16.9333L8.7738 15.9333ZM16.0335 5.36928C15.8692 4.84198 15.3086 4.54767 14.7813 4.71191C14.254 4.87615 13.9597 5.43676 14.124 5.96406L16.0335 5.36928ZM12.0825 15.6951L12.4035 16.6422L12.4035 16.6422L12.0825 15.6951ZM15.0787 12.5696L16.0335 12.867L16.0335 12.867L15.0787 12.5696ZM7.84046 3.86667H9.70713V1.86667H7.84046V3.86667ZM0.307129 9.4C0.307129 11.0594 0.294792 12.1262 0.584475 13.0178L2.48659 12.3997C2.31947 11.8854 2.30713 11.215 2.30713 9.4H0.307129ZM7.84046 1.86667C6.1811 1.86667 5.11425 1.85433 4.2227 2.14401L4.84073 4.04613C5.35508 3.879 6.02543 3.86667 7.84046 3.86667V1.86667ZM2.30713 9.4C2.30713 7.58497 2.31947 6.91462 2.48659 6.40027L0.584475 5.78224C0.294792 6.67379 0.307129 7.74064 0.307129 9.4H2.30713ZM4.2227 2.14401C2.49755 2.70455 1.14501 4.05709 0.584475 5.78224L2.48659 6.40027C2.84929 5.284 3.72446 4.40883 4.84073 4.04613L4.2227 2.14401ZM7.13336 13.3596L5.98937 14.5035L7.40359 15.9178L8.54757 14.7738L7.13336 13.3596ZM6.11876 17.3558L7.43361 18.4516L8.71398 16.9151L7.39913 15.8194L6.11876 17.3558ZM8.30002 1.70711L9.44401 2.85109L10.8582 1.43688L9.71424 0.292893L8.30002 1.70711ZM9.44847 2.75273L8.13361 3.84845L9.41398 5.38489L10.7288 4.28918L9.44847 2.75273ZM8.7738 14.9333H6.90713V16.9333H8.7738V14.9333ZM16.3071 9.11815C16.3071 7.38101 16.3186 6.28449 16.0335 5.36928L14.124 5.96406C14.2957 6.5154 14.3071 7.23101 14.3071 9.11815L16.3071 9.11815ZM8.7738 16.9333C10.4303 16.9333 11.5052 16.9466 12.4035 16.6422L11.7615 14.748C11.254 14.92 10.5917 14.9333 8.7738 14.9333L8.7738 16.9333ZM14.3071 9.11815C14.3071 11.0053 14.2957 11.7209 14.124 12.2722L16.0335 12.867C16.3186 11.9518 16.3071 10.8553 16.3071 9.11815L14.3071 9.11815ZM12.4035 16.6422C14.1395 16.0538 15.4806 14.642 16.0335 12.867L14.124 12.2722C13.7536 13.4613 12.867 14.3733 11.7615 14.748L12.4035 16.6422ZM5.98937 14.5035C5.57669 14.9162 5.39168 15.4676 5.42747 16.0004L7.42297 15.8663C7.4235 15.8741 7.42253 15.883 7.41898 15.8928C7.41507 15.9035 7.40898 15.9124 7.40359 15.9178L5.98937 14.5035ZM5.42747 16.0004C5.46141 16.5055 5.69431 17.0021 6.11876 17.3558L7.39913 15.8194C7.40458 15.8239 7.41112 15.8317 7.41599 15.8414C7.42046 15.8504 7.42247 15.8588 7.42297 15.8663L5.42747 16.0004ZM6.90713 14.9333H6.42522V16.9333H6.90713V14.9333ZM9.44401 2.85109C9.43861 2.8457 9.43252 2.83681 9.42862 2.8261C9.42507 2.81638 9.4241 2.80744 9.42462 2.79964L11.4201 2.93369C11.4559 2.40097 11.2709 1.84956 10.8582 1.43688L9.44401 2.85109ZM9.42462 2.79964C9.42512 2.79218 9.42713 2.78369 9.4316 2.77473C9.43647 2.76499 9.44301 2.75728 9.44847 2.75273L10.7288 4.28918C11.1533 3.93547 11.3862 3.43886 11.4201 2.93369L9.42462 2.79964ZM9.70713 3.86667H10.4224V1.86667H9.70713V3.86667Z" fill="white"/>
</svg>
