<svg width="19" height="18" viewBox="0 0 19 18" fill="none" xmlns="http://www.w3.org/2000/svg">
<path d="M9.93532 0.0219513C8.64949 -0.068018 7.35934 0.11926 6.15216 0.571114C4.94497 1.02297 3.84894 1.72885 2.93821 2.64101C2.02747 3.55316 1.3233 4.6503 0.87333 5.85818C0.423361 7.06607 0.238096 8.35651 0.330071 9.6422C0.660821 14.407 4.86982 18.001 10.1206 18.001H14.5583C15.5525 17.9998 16.5057 17.6043 17.2087 16.9013C17.9117 16.1983 18.3071 15.2451 18.3083 14.251V9.25595C18.3363 6.94404 17.4886 4.70712 15.9356 2.99433C14.3825 1.28154 12.2389 0.219679 9.93532 0.0219513V0.0219513ZM9.30832 3.75095C9.60669 3.75095 9.89284 3.86948 10.1038 4.08046C10.3148 4.29144 10.4333 4.57758 10.4333 4.87595C10.4333 5.17432 10.3148 5.46047 10.1038 5.67145C9.89284 5.88243 9.60669 6.00095 9.30832 6.00095C9.00995 6.00095 8.72381 5.88243 8.51283 5.67145C8.30185 5.46047 8.18332 5.17432 8.18332 4.87595C8.18332 4.57758 8.30185 4.29144 8.51283 4.08046C8.72381 3.86948 9.00995 3.75095 9.30832 3.75095ZM10.8083 13.501C10.8083 13.6999 10.7293 13.8906 10.5887 14.0313C10.448 14.1719 10.2572 14.251 10.0583 14.251C9.85941 14.251 9.66864 14.1719 9.52799 14.0313C9.38734 13.8906 9.30832 13.6999 9.30832 13.501V9.00095H8.55832C8.35941 9.00095 8.16864 8.92193 8.02799 8.78128C7.88734 8.64063 7.80832 8.44987 7.80832 8.25095C7.80832 8.05204 7.88734 7.86127 8.02799 7.72062C8.16864 7.57997 8.35941 7.50095 8.55832 7.50095H9.30832C9.70615 7.50095 10.0877 7.65899 10.369 7.94029C10.6503 8.2216 10.8083 8.60313 10.8083 9.00095V13.501Z" fill="white"/>
</svg>
