<svg width="153" height="41" viewBox="0 0 153 41" fill="none" xmlns="http://www.w3.org/2000/svg">
<path d="M142.13 5H106.87C100.866 5 96 9.76983 96 15.6537V24.3463C96 30.2302 100.866 35 106.87 35H142.13C148.134 35 153 30.2302 153 24.3463V15.6537C153 9.76983 148.134 5 142.13 5Z" fill="url(#paint0_linear_432_226)"/>
<path d="M2.1 32V10.4H6.24L15.63 24.8V10.4H19.77V32H15.63L6.24 17.6V32H2.1ZM28.6055 32L22.0055 10.4H26.2055L31.6055 28.16L37.0955 10.4H41.2955L34.6955 32H28.6055ZM52.3451 32.45C50.6051 32.45 49.0751 32.1 47.7551 31.4C46.4351 30.69 45.4051 29.695 44.6651 28.415C43.9251 27.135 43.5551 25.63 43.5551 23.9V10.43L47.6951 10.4V23.87C47.6951 24.58 47.8151 25.225 48.0551 25.805C48.2951 26.385 48.6251 26.885 49.0451 27.305C49.4751 27.725 49.9701 28.05 50.5301 28.28C51.1001 28.5 51.7051 28.61 52.3451 28.61C53.0051 28.61 53.6151 28.495 54.1751 28.265C54.7451 28.035 55.2401 27.71 55.6601 27.29C56.0801 26.87 56.4051 26.37 56.6351 25.79C56.8751 25.21 56.9951 24.57 56.9951 23.87V10.4H61.1351V23.9C61.1351 25.63 60.7651 27.135 60.0251 28.415C59.2851 29.695 58.2551 30.69 56.9351 31.4C55.6151 32.1 54.0851 32.45 52.3451 32.45ZM70.3327 32V14.21H63.5227V10.4H81.2227V14.21H74.4127V32H70.3327ZM83.9332 32V10.4H88.0132V32H83.9332Z" fill="white"/>
<path d="M107.12 26V14.48H109.328L114.336 22.16V14.48H116.544V26H114.336L109.328 18.32V26H107.12ZM118.776 26V14.48H126.296V16.512H120.952V18.976H125.336V21.008H120.952V23.968H126.296V26H118.776ZM130.63 26L127.254 14.48H129.542L131.702 22.4L133.862 14.496L136.15 14.48L138.31 22.4L140.47 14.48H142.758L139.382 26H137.238L135.006 18.224L132.774 26H130.63Z" fill="white"/>
<defs>
<linearGradient id="paint0_linear_432_226" x1="103.644" y1="37.1526" x2="144.663" y2="2.03657" gradientUnits="userSpaceOnUse">
<stop stop-color="#35DE71"/>
<stop offset="1" stop-color="#35DE94"/>
</linearGradient>
</defs>
</svg>
