<svg width="13" height="14" viewBox="0 0 13 14" fill="none" xmlns="http://www.w3.org/2000/svg">
<path d="M8.05364 1.94645L1.95575 8.04434L1.95574 8.04435L1.94536 8.05473L1.94535 8.05474C1.93433 8.06576 1.92338 8.07668 1.91252 8.08752C1.75005 8.24965 1.60622 8.39317 1.50486 8.5722C1.40349 8.75123 1.35442 8.9484 1.29899 9.17113C1.29528 9.18603 1.29155 9.20104 1.28777 9.21616L0.757569 11.3369L1.24264 11.4582L0.757569 11.3369C0.755354 11.3458 0.753125 11.3547 0.750887 11.3636C0.711644 11.5203 0.669735 11.6877 0.655987 11.8282C0.64085 11.9829 0.644378 12.244 0.853788 12.4534L1.20734 12.0999L0.85379 12.4534C1.0632 12.6628 1.32426 12.6663 1.47899 12.6512C1.61953 12.6375 1.78687 12.5955 1.94355 12.5563C1.95249 12.5541 1.96139 12.5518 1.97025 12.5496L4.09103 12.0194C4.10616 12.0156 4.12116 12.0119 4.13605 12.0082C4.35879 11.9528 4.55596 11.9037 4.73499 11.8023L4.48864 11.3672L4.73499 11.8023C4.91403 11.701 5.05755 11.5571 5.21968 11.3947C5.23052 11.3838 5.24144 11.3729 5.25246 11.3618L11.3607 5.25355L11.38 5.23425C11.6417 4.97259 11.8674 4.747 12.0296 4.5432C12.2023 4.32639 12.343 4.08701 12.3809 3.78978C12.397 3.66377 12.397 3.53623 12.3809 3.41022C12.343 3.11299 12.2023 2.87361 12.0296 2.6568C11.8674 2.453 11.6417 2.22741 11.38 1.96575L11.3607 1.94645L11.3414 1.92714C11.0798 1.66545 10.8542 1.43984 10.6504 1.27756C10.4336 1.10492 10.1942 0.964177 9.89697 0.926267C9.77096 0.910196 9.64342 0.910196 9.51742 0.926267L9.58068 1.42225L9.51742 0.926267C9.22019 0.964177 8.98081 1.10492 8.76399 1.27757C8.56019 1.43985 8.3346 1.66546 8.07293 1.92715L8.05364 1.94645Z" stroke="white"/>
</svg>
