<svg width="35" height="24" viewBox="0 0 35 24" fill="none" xmlns="http://www.w3.org/2000/svg">
<path d="M20.6425 2L7.30911 2C5.75596 2 4.97896 2 4.36639 2.25374C3.54962 2.59205 2.90113 3.24135 2.56282 4.05812C2.30908 4.67069 2.30908 5.44727 2.30908 7.00041C5.07052 7.00041 7.30911 9.23823 7.30911 11.9997C7.30911 14.7611 5.07052 17.0001 2.30908 17.0001C2.30908 18.5532 2.30908 19.3298 2.56282 19.9424C2.90113 20.7591 3.54962 21.4079 4.36639 21.7462C4.97896 21.9999 5.75597 22.0001 7.30911 22.0001H20.6425M20.6425 2L27.3092 2C28.8624 2 29.6389 2 30.2515 2.25374C31.0683 2.59205 31.717 3.24135 32.0553 4.05812C32.3091 4.67069 32.3091 5.44727 32.3091 7.00041C29.5476 7.00041 27.3092 9.23862 27.3092 12.0001C27.3092 14.7615 29.5476 17.0001 32.3091 17.0001C32.3091 18.5532 32.3091 19.3298 32.0553 19.9424C31.717 20.7591 31.0683 21.4079 30.2515 21.7462C29.6389 21.9999 28.8624 22.0001 27.3092 22.0001H20.6425M20.6425 2V22.0001" stroke="white" stroke-width="4" stroke-linecap="round" stroke-linejoin="round"/>
</svg>
