<svg width="19" height="18" viewBox="0 0 19 18" fill="none" xmlns="http://www.w3.org/2000/svg">
<path fill-rule="evenodd" clip-rule="evenodd" d="M6.83213 13.5005H2.55713C1.43738 13.5005 0.307129 12.65 0.307129 10.751V6.97096C0.322899 5.24759 0.968199 3.58945 2.12151 2.30877C3.27483 1.0281 4.85657 0.213266 6.56888 0.017716C7.53515 -0.0524283 8.50523 0.0862523 9.4131 0.424334C10.321 0.762413 11.1455 1.29197 11.8306 1.97703C12.5156 2.66209 13.0452 3.48658 13.3832 4.39449C13.7213 5.3024 13.86 6.27244 13.7899 7.23871C13.5941 8.9517 12.7786 10.534 11.497 11.6874C10.2154 12.8408 8.55623 13.4856 6.83213 13.5005ZM15.3071 6.81046H15.2981C15.2981 6.98821 15.2981 7.16596 15.2891 7.34446C15.1985 8.6148 14.7725 9.82403 14.1021 10.8905H14.4158L15.948 15.7505H15.111L14.7752 14.6975H12.8609L12.5291 15.7505H11.6921L12.6827 12.6086C11.1956 14.0048 9.2166 14.9097 7.12013 14.9862V14.9974C7.64559 15.9088 8.40143 16.666 9.31178 17.193C10.2222 17.7201 11.2552 17.9986 12.3071 18.0005H16.0571C16.6538 18.0005 17.2262 17.7635 17.6481 17.3414C18.0701 16.9195 18.3071 16.3472 18.3071 15.7505V12.0005C18.3061 10.9483 18.0283 9.91492 17.5018 9.00397C16.9752 8.09302 16.2184 7.33655 15.3071 6.81046ZM13.8122 11.6776L13.1 13.9381H14.5331L13.8122 11.6776ZM9.2835 9.87427L8.8062 9.3993C8.76293 9.42953 8.71853 9.45862 8.673 9.48652C8.24948 9.74505 7.74076 9.87427 7.14676 9.87427C6.55276 9.87427 6.04401 9.74505 5.62051 9.48652C5.19701 9.2253 4.87113 8.8623 4.64289 8.39753C4.41738 7.93283 4.30464 7.3938 4.30464 6.78055C4.30464 6.1673 4.41738 5.6283 4.64289 5.16355C4.87113 4.69879 5.19701 4.33718 5.62051 4.07867C6.04401 3.81742 6.55276 3.6868 7.14676 3.6868C7.74076 3.6868 8.24948 3.81742 8.673 4.07867C9.09923 4.33718 9.4251 4.69879 9.65063 5.16355C9.87885 5.6283 9.993 6.1673 9.993 6.78055C9.993 7.3938 9.87885 7.93283 9.65063 8.39753C9.58455 8.53373 9.50985 8.66115 9.4266 8.77988L9.89813 9.2514L9.2835 9.87427ZM8.211 7.56428L8.6856 8.03888C8.7045 8.0001 8.72228 7.96012 8.739 7.91902C8.87378 7.59457 8.94113 7.21505 8.94113 6.78055C8.94113 6.34605 8.87378 5.9693 8.739 5.6503C8.607 5.32855 8.40765 5.0783 8.14088 4.89955C7.87688 4.7208 7.54551 4.62867 7.14676 4.62317C6.74801 4.62042 6.41664 4.70843 6.15264 4.88717C5.88864 5.06592 5.68926 5.31754 5.55451 5.64205C5.42251 5.96655 5.35651 6.34605 5.35651 6.78055C5.35651 7.21505 5.42251 7.59315 5.55451 7.9149C5.68651 8.23395 5.88451 8.4828 6.14851 8.66153C6.41526 8.84033 6.74801 8.93243 7.14676 8.9379C7.5264 8.94053 7.845 8.86087 8.10248 8.69902L7.58814 8.18715L8.211 7.56428Z" fill="white"/>
</svg>
