<svg width="15" height="16" viewBox="0 0 15 16" fill="none" xmlns="http://www.w3.org/2000/svg">
<path fill-rule="evenodd" clip-rule="evenodd" d="M9.27876 1.48767C8.71268 -0.495891 5.90158 -0.49589 5.3355 1.48767C5.03184 2.55171 3.93866 3.18286 2.86535 2.91382C0.86449 2.41228 -0.541057 4.84676 0.893717 6.32878C1.66337 7.12378 1.66337 8.38606 0.893717 9.18106C-0.541058 10.6631 0.86449 13.0976 2.86535 12.596C3.93866 12.327 5.03184 12.9581 5.3355 14.0222C5.90158 16.0057 8.71268 16.0057 9.27876 14.0222C9.58242 12.9581 10.6756 12.327 11.7489 12.596C13.7498 13.0976 15.1553 10.6631 13.7205 9.18106C12.9509 8.38606 12.9509 7.12378 13.7205 6.32878C15.1553 4.84676 13.7498 2.41228 11.7489 2.91382C10.6756 3.18286 9.58242 2.55171 9.27876 1.48767ZM7.30713 9.69995C8.4117 9.69995 9.30713 8.80452 9.30713 7.69995C9.30713 6.59538 8.4117 5.69995 7.30713 5.69995C6.20256 5.69995 5.30713 6.59538 5.30713 7.69995C5.30713 8.80452 6.20256 9.69995 7.30713 9.69995Z" fill="white"/>
</svg>
