<svg width="15" height="22" viewBox="0 0 15 22" fill="none" xmlns="http://www.w3.org/2000/svg">
<path d="M14.9684 15.6871C15.0876 15.2464 14.8511 14.7892 14.5728 14.4281C13.7643 13.3788 12.5149 12.6846 11.2009 12.5542C10.4637 12.4811 9.7123 12.586 9.01842 12.8457C8.39638 13.0787 7.76077 12.5361 7.87876 11.8794C8.16397 10.2923 8.39709 8.69585 8.44181 7.09057C8.45584 6.58767 8.8933 6.20721 9.39141 6.25672C10.7202 6.38895 12.1067 5.94441 13.3991 5.5013C13.7388 5.38484 14.147 5.17154 14.1223 4.81164C14.1082 4.60719 13.9467 4.43693 13.9262 4.23295C13.8958 3.92997 14.1777 3.68223 14.2219 3.38116C14.2548 3.1571 14.1522 2.93781 14.0526 2.73479C13.7507 2.12022 13.4491 1.50566 13.1472 0.891088C13.0571 0.707674 12.9636 0.519478 12.813 0.381977C12.5499 0.141889 12.1681 0.100998 11.8142 0.0715847C10.6086 -0.0286113 9.3229 -0.112786 8.26221 0.471651C7.68513 0.789696 7.22461 1.28159 6.78763 1.77635C5.20172 3.57079 3.78042 5.51206 2.54775 7.56763C1.38692 9.50364 0.379761 11.5824 0.0503044 13.8183C0.0013022 14.1512 -0.0320003 14.4943 0.0486393 14.821C0.139745 15.1895 0.368105 15.5061 0.591469 15.8122C1.60934 17.2073 2.63743 18.6138 3.92338 19.7638C4.58991 20.3597 5.33017 20.8868 6.16059 21.2144C6.93202 21.5186 7.75982 21.6429 8.57954 21.7651C9.29863 21.8722 10.0206 21.9777 10.7482 21.9961C11.2069 22.0076 11.6974 21.9987 12.1581 21.9004C12.7257 21.7792 13.1848 21.3593 13.3644 20.8047C13.3653 20.8016 13.3663 20.7988 13.3672 20.7957C13.4379 20.5771 13.5887 20.1316 13.6527 19.9109C13.8192 19.337 13.9017 18.9833 14.0783 18.4376C14.2517 17.9017 14.4251 17.3658 14.5985 16.8299C14.7086 16.4894 14.819 16.1489 14.9291 15.8083C14.942 15.7684 14.9572 15.7285 14.9681 15.6878L14.9684 15.6871Z" fill="white"/>
</svg>
