<svg width="19" height="15" viewBox="0 0 19 15" fill="none" xmlns="http://www.w3.org/2000/svg">
<path d="M4.05058 15C4.4489 15 4.83091 14.842 5.11257 14.5607C5.39422 14.2794 5.55245 13.8978 5.55245 13.5V9C5.55245 8.60218 5.39422 8.22064 5.11257 7.93934C4.83091 7.65804 4.4489 7.5 4.05058 7.5V6.75C4.05058 5.35761 4.6044 4.02225 5.59019 3.03769C6.57598 2.05312 7.91301 1.5 9.30713 1.5C10.7013 1.5 12.0383 2.05312 13.0241 3.03769C14.0099 4.02225 14.5637 5.35761 14.5637 6.75V7.5C14.1654 7.5 13.7833 7.65804 13.5017 7.93934C13.22 8.22064 13.0618 8.60218 13.0618 9V13.5H10.809C10.6098 13.5 10.4188 13.579 10.278 13.7197C10.1372 13.8603 10.0581 14.0511 10.0581 14.25C10.0581 14.4489 10.1372 14.6397 10.278 14.7803C10.4188 14.921 10.6098 15 10.809 15H14.5637C15.4243 14.9974 16.2578 14.6997 16.9249 14.1566C17.5919 13.6135 18.0519 12.858 18.2278 12.0167C18.4038 11.1753 18.285 10.2991 17.8914 9.5348C17.4977 8.77046 16.8532 8.16438 16.0655 7.818V6.75C16.0655 4.95979 15.3535 3.2429 14.0861 1.97703C12.8186 0.711159 11.0996 0 9.30713 0C7.51469 0 5.79566 0.711159 4.52821 1.97703C3.26076 3.2429 2.54871 4.95979 2.54871 6.75V7.818C1.7611 8.16438 1.11653 8.77046 0.722906 9.5348C0.329282 10.2991 0.210498 11.1753 0.386439 12.0167C0.562381 12.858 1.02237 13.6135 1.6894 14.1566C2.35642 14.6997 3.19 14.9974 4.05058 15V15Z" fill="white"/>
</svg>
