<svg width="22" height="22" viewBox="0 0 22 22" fill="none" xmlns="http://www.w3.org/2000/svg">
<path d="M14.3335 8.77769L9.88898 13.2222L7.66672 10.9999M12.3847 1.50978L13.7413 2.66591C14.0831 2.95717 14.5075 3.13327 14.9551 3.16899L16.7319 3.31059C17.7765 3.39395 18.6062 4.22316 18.6896 5.26777L18.8308 7.0448C18.8666 7.49244 19.0433 7.91743 19.3346 8.25922L20.4902 9.61549C21.1699 10.4131 21.17 11.5863 20.4903 12.3839L19.3347 13.7404C19.0434 14.0822 18.8669 14.5073 18.8312 14.955L18.689 16.7317C18.6057 17.7763 17.7772 18.6061 16.7326 18.6894L14.9553 18.8312C14.5076 18.867 14.0828 19.0426 13.741 19.3339L12.3847 20.49C11.5871 21.1697 10.4131 21.1699 9.61554 20.4902L8.25918 19.334C7.91739 19.0427 7.49261 18.8667 7.04497 18.831L5.26759 18.6894C4.22299 18.6061 3.39454 17.7765 3.31118 16.7319L3.16904 14.9551C3.13331 14.5075 2.95682 14.0827 2.66556 13.7409L1.50994 12.384C0.830233 11.5864 0.829915 10.4135 1.50962 9.61592L2.66628 8.25902C2.95755 7.91723 3.13234 7.49245 3.16806 7.04481L3.3102 5.26798C3.39357 4.22337 4.2244 3.39384 5.26901 3.31048L7.04442 3.16888C7.49206 3.13315 7.91705 2.95721 8.25884 2.66594L9.61565 1.50978C10.4132 0.830074 11.5871 0.830074 12.3847 1.50978Z" stroke="white" stroke-width="2" stroke-linecap="round" stroke-linejoin="round"/>
</svg>
