<svg width="18" height="19" viewBox="0 0 18 19" fill="none" xmlns="http://www.w3.org/2000/svg">
<path d="M0.26 19L6.552 9.536L0.442 0.279999H4.784L8.762 6.52L12.688 0.279999H17.056L10.946 9.536L17.212 19H12.87L8.762 12.552L4.628 19H0.26Z" fill="#F2CC00"/>
<path d="M0.26 19L-0.156377 18.7232L-0.672835 19.5H0.26V19ZM6.552 9.536L6.96838 9.81282L7.15176 9.53698L6.96928 9.26055L6.552 9.536ZM0.442 0.279999V-0.220001H-0.48717L0.0247169 0.555453L0.442 0.279999ZM4.784 0.279999L5.20561 0.0112206L5.05821 -0.220001H4.784V0.279999ZM8.762 6.52L8.34039 6.78878L8.76478 7.45449L9.18521 6.78627L8.762 6.52ZM12.688 0.279999V-0.220001H12.4119L12.2648 0.0137329L12.688 0.279999ZM17.056 0.279999L17.4733 0.555453L17.9852 -0.220001H17.056V0.279999ZM10.946 9.536L10.5287 9.26055L10.3466 9.53641L10.5291 9.81203L10.946 9.536ZM17.212 19V19.5H18.1427L17.6289 18.724L17.212 19ZM12.87 19L12.4483 19.2687L12.5957 19.5H12.87V19ZM8.762 12.552L9.18369 12.2833L8.76333 11.6235L8.34108 12.2821L8.762 12.552ZM4.628 19V19.5H4.90137L5.04892 19.2699L4.628 19ZM0.676377 19.2768L6.96838 9.81282L6.13562 9.25918L-0.156377 18.7232L0.676377 19.2768ZM6.96928 9.26055L0.859283 0.00454549L0.0247169 0.555453L6.13472 9.81145L6.96928 9.26055ZM0.442 0.779999H4.784V-0.220001H0.442V0.779999ZM4.36239 0.548778L8.34039 6.78878L9.18361 6.25122L5.20561 0.0112206L4.36239 0.548778ZM9.18521 6.78627L13.1112 0.546266L12.2648 0.0137329L8.3388 6.25373L9.18521 6.78627ZM12.688 0.779999H17.056V-0.220001H12.688V0.779999ZM16.6387 0.00454551L10.5287 9.26055L11.3633 9.81145L17.4733 0.555453L16.6387 0.00454551ZM10.5291 9.81203L16.7951 19.276L17.6289 18.724L11.3629 9.25997L10.5291 9.81203ZM17.212 18.5H12.87V19.5H17.212V18.5ZM13.2917 18.7313L9.18369 12.2833L8.34031 12.8207L12.4483 19.2687L13.2917 18.7313ZM8.34108 12.2821L4.20708 18.7301L5.04892 19.2699L9.18292 12.8219L8.34108 12.2821ZM4.628 18.5H0.26V19.5H4.628V18.5Z" fill="#F1D436"/>
</svg>
